<svg xmlns="http://www.w3.org/2000/svg" viewBox="0 0 64 64" role="img" aria-label="coconut palm">
  <rect width="64" height="64" rx="14" fill="#111318"/>
  <g fill="#ccccff">
    <!-- fronds -->
    <ellipse cx="22" cy="18" rx="14" ry="5.5" transform="rotate(-38 22 18)"/>
    <ellipse cx="28" cy="14" rx="13" ry="5" transform="rotate(-12 28 14)"/>
    <ellipse cx="36" cy="13" rx="13" ry="5" transform="rotate(18 36 13)"/>
    <ellipse cx="42" cy="18" rx="14" ry="5.5" transform="rotate(42 42 18)"/>
    <ellipse cx="24" cy="24" rx="12" ry="4.5" transform="rotate(-55 24 24)"/>
    <ellipse cx="40" cy="24" rx="12" ry="4.5" transform="rotate(55 40 24)"/>
    <!-- coconuts -->
    <circle cx="30" cy="24" r="2.4"/>
    <circle cx="34.2" cy="23.2" r="2.5"/>
    <circle cx="32.2" cy="26.4" r="2.2"/>
    <!-- trunk -->
    <path d="M31.5 26c.6 5 1.5 11.2 2.1 17.2.4 3.8.6 7.2.2 9.4-.2 1.2-.8 1.9-1.7 1.9-.8 0-1.3-.6-1.5-1.6-.4-2.2-.2-5.4.2-9.2.7-6.2 1.6-12.4 2.1-17.2.1-.9.7-1.5 1.4-1.5.7 0 1.2.6 1.3 1.5z"/>
  </g>
</svg>
